<svg id="Capa_1" enable-background="new 0 0 512.002 512.002" height="512" viewBox="0 0 512.002 512.002" width="512" xmlns="http://www.w3.org/2000/svg"><g><g><path d="m193.084 404.221h-10.923c-20.399 0-36.936 16.537-36.936 36.936v63.345h221.551v-63.345c0-20.399-16.537-36.936-36.936-36.936z" fill="#c4e2ff"/><path d="m329.84 404.221h-25.512c20.399 0 36.936 16.537 36.936 36.937v63.345h25.512v-63.345c0-20.4-16.537-36.937-36.936-36.937z" fill="#b3dafe"/><path d="m221.779 333.089v55.473l34.095 22.73 34.095-22.73v-55.473z" fill="#ffbfb1"/><path d="m338.163 252.473c-.381 0-.759.014-1.137.029-6.512-38.939-40.364-68.618-81.152-68.618-40.789 0-74.64 29.679-81.152 68.618-.378-.015-.756-.029-1.137-.029-15.432 0-27.943 12.51-27.943 27.942s12.51 27.943 27.943 27.943c.381 0 .759-.013 1.137-.029 6.512 38.939 40.364 68.618 81.152 68.618 40.789 0 74.64-29.678 81.152-68.618.378.015.756.029 1.137.029 15.432 0 27.943-12.51 27.943-27.943 0-15.432-12.51-27.942-27.943-27.942z" fill="#ffcebf"/><path d="m221.779 388.563-28.821 15.658 40.662 30.307 22.254-23.235z" fill="#b3dafe"/><path d="m289.969 388.563 28.821 15.658-40.661 30.307-22.255-23.235z" fill="#b3dafe"/><path d="m255.874 411.293-17.476 18.246 6.334 24.823h22.284l6.334-24.823z" fill="#fd544d"/><path d="m244.711 454.362-9.85 50.14h41.98l-9.85-50.14z" fill="#fd544d"/><path d="m121.826 65.303 8.571 17.367c.728 1.475 2.135 2.498 3.764 2.734l19.166 2.785c4.1.596 5.737 5.634 2.77 8.526l-13.869 13.518c-1.178 1.148-1.716 2.803-1.438 4.424l3.274 19.088c.7 4.083-3.586 7.197-7.253 5.269l-17.142-9.012c-1.456-.766-3.196-.766-4.652 0l-17.142 9.012c-3.667 1.928-7.953-1.186-7.253-5.269l3.274-19.088c.278-1.621-.259-3.276-1.438-4.424l-13.868-13.518c-2.967-2.892-1.33-7.93 2.77-8.526l19.166-2.785c1.628-.237 3.035-1.259 3.764-2.734l8.571-17.367c1.834-3.715 7.131-3.715 8.965 0z" fill="#fe9738"/><path d="m390.175 65.303-8.571 17.367c-.728 1.475-2.135 2.498-3.764 2.734l-19.166 2.785c-4.1.596-5.737 5.634-2.77 8.526l13.869 13.518c1.178 1.148 1.716 2.803 1.438 4.424l-3.274 19.088c-.7 4.083 3.586 7.197 7.253 5.269l17.142-9.012c1.456-.766 3.196-.766 4.652 0l17.142 9.012c3.667 1.928 7.953-1.186 7.253-5.269l-3.274-19.088c-.278-1.621.259-3.276 1.438-4.424l13.869-13.518c2.967-2.892 1.33-7.93-2.77-8.526l-19.166-2.785c-1.628-.237-3.035-1.259-3.764-2.734l-8.571-17.367c-1.835-3.715-7.132-3.715-8.966 0z" fill="#fe9738"/><path d="m239.613 87.12h32.519c2.119-6.308 5.631-12.056 10.271-16.826 6.827-7.018 10.894-16.732 10.441-27.397-.811-19.11-16.405-34.635-35.518-35.367-21.1-.808-38.459 16.058-38.459 36.978 0 10.032 3.995 19.127 10.479 25.79 4.639 4.767 8.147 10.515 10.266 16.821z" fill="#fdb97e"/><path d="m239.613 87.12h32.519v13.317c0 8.98-7.28 16.26-16.26 16.26-8.98 0-16.26-7.28-16.26-16.26v-13.317z" fill="#537983"/><g><path d="m208.423 319.472h-11.049c-4.023 0-7.284-3.261-7.284-7.284s3.261-7.284 7.284-7.284h11.049c4.023 0 7.284 3.261 7.284 7.284s-3.261 7.284-7.284 7.284z" fill="#ffb09e"/></g><path d="m338.163 252.472c-.381 0-.759.014-1.137.029-6.512-38.939-40.364-68.618-81.152-68.618-4.834 0-9.567.43-14.173 1.23 34.252 5.949 61.239 33.064 66.979 67.388.378-.015.756-.029 1.137-.029 15.432 0 27.943 12.51 27.943 27.942s-12.51 27.943-27.943 27.943c-.381 0-.759-.014-1.137-.029-5.74 34.324-32.727 61.439-66.979 67.388 4.606.8 9.339 1.23 14.173 1.23 40.789 0 74.64-29.679 81.152-68.618.378.015.756.029 1.137.029 15.432 0 27.943-12.511 27.943-27.943s-12.51-27.942-27.943-27.942z" fill="#ffbfb1"/><path d="m289.969 388.563-11.455 7.636 14.764 8.022-25.776 19.212 10.626 11.095 40.662-30.307z" fill="#8ac9fe"/><path d="m156.688 183.883c-1.766 5.744-2.72 11.843-2.72 18.166v50.452h116.881c11.959 0 22.862-4.505 31.117-11.905 5.772 7.251 14.668 11.905 24.657 11.905h31.158v-49.573c0-6.793-1.477-13.236-4.11-19.044h-196.983z" fill="#c4573a"/><g><path d="m353.671 183.883h-31.181c2.632 5.809 4.11 12.252 4.11 19.045v49.573h.023 31.158v-49.573c0-6.793-1.477-13.236-4.11-19.045z" fill="#a74b30"/></g><g><path d="m314.374 319.472h-11.049c-4.023 0-7.284-3.261-7.284-7.284s3.261-7.284 7.284-7.284h11.049c4.023 0 7.284 3.261 7.284 7.284s-3.261 7.284-7.284 7.284z" fill="#ffb09e"/></g><path d="m292.844 42.897c-.811-19.11-16.405-34.635-35.518-35.367-4.487-.172-8.802.462-12.819 1.758 14.361 4.654 24.994 17.92 25.66 33.609.453 10.665-3.615 20.379-10.441 27.397-4.64 4.77-8.151 10.518-10.271 16.826h22.677c2.119-6.308 5.63-12.056 10.271-16.826 6.826-7.017 10.893-16.732 10.441-27.397z" fill="#fea95c"/><path d="m249.455 87.12v13.317c0 4.567-1.889 8.688-4.921 11.642 2.929 2.854 6.926 4.618 11.338 4.618 8.98 0 16.26-7.28 16.26-16.26v-13.317z" fill="#3e5959"/><g><path d="m156.097 96.715c2.967-2.892 1.33-7.93-2.77-8.526l-19.166-2.785c-1.628-.237-3.036-1.259-3.764-2.734l-8.571-17.367c-1.833-3.715-7.131-3.715-8.965 0l-6.856 13.892 1.715 3.475c.728 1.475 2.135 2.498 3.764 2.734l19.166 2.785c4.1.596 5.737 5.634 2.77 8.526l-13.869 13.519c-1.178 1.148-1.716 2.803-1.438 4.424l2.739 15.967 15.96 8.391c3.667 1.928 7.953-1.186 7.252-5.269l-3.274-19.088c-.278-1.622.26-3.276 1.438-4.424z" fill="#fe860a"/></g><g><path d="m433.411 96.715c2.967-2.892 1.33-7.93-2.77-8.526l-19.166-2.785c-1.628-.237-3.035-1.259-3.763-2.734l-8.571-17.367c-1.833-3.715-7.131-3.715-8.965 0l-6.856 13.892 1.715 3.475c.728 1.475 2.135 2.498 3.763 2.734l19.166 2.785c4.1.596 5.737 5.634 2.77 8.526l-13.868 13.519c-1.178 1.148-1.716 2.803-1.438 4.424l2.739 15.967 15.96 8.391c3.667 1.928 7.953-1.186 7.252-5.269l-3.274-19.088c-.278-1.622.26-3.276 1.438-4.424z" fill="#fe860a"/></g></g><g><path d="m215.708 271.313c-4.142 0-7.5 3.357-7.5 7.5v15.153c0 4.143 3.358 7.5 7.5 7.5s7.5-3.357 7.5-7.5v-15.153c0-4.143-3.358-7.5-7.5-7.5z"/><path d="m296.04 301.466c4.142 0 7.5-3.357 7.5-7.5v-15.153c0-4.143-3.358-7.5-7.5-7.5s-7.5 3.357-7.5 7.5v15.153c0 4.143 3.358 7.5 7.5 7.5z"/><path d="m255.874 344.664c13.772 0 24.976-11.204 24.976-24.977 0-4.143-3.358-7.5-7.5-7.5s-7.5 3.357-7.5 7.5c0 5.501-4.475 9.977-9.976 9.977s-9.976-4.476-9.976-9.977c0-4.143-3.358-7.5-7.5-7.5s-7.5 3.357-7.5 7.5c0 13.773 11.204 24.977 24.976 24.977z"/><path d="m248.374 142.716v21.218c0 4.143 3.358 7.5 7.5 7.5s7.5-3.357 7.5-7.5v-21.218c0-4.143-3.358-7.5-7.5-7.5s-7.5 3.358-7.5 7.5z"/><path d="m151.456 132.479-3.052-17.793 12.927-12.6c7.416-7.228 3.318-19.831-6.927-21.318l-17.864-2.597-7.989-16.187c-4.585-9.287-17.834-9.282-22.416 0l-7.989 16.187-17.865 2.597c-4.743.688-8.608 3.948-10.089 8.507-1.481 4.558-.269 9.467 3.163 12.812l12.927 12.6-3.052 17.792c-1.758 10.244 9.009 17.974 18.135 13.177l15.979-8.4 15.979 8.4c9.161 4.815 19.884-2.971 18.133-13.177zm-18.058-16.554 2.417 14.094-12.655-6.654c-3.642-1.914-7.991-1.915-11.633 0l-12.656 6.654 2.417-14.095c.695-4.054-.648-8.188-3.595-11.062l-10.238-9.979 14.148-2.057c4.071-.591 7.589-3.146 9.412-6.837l6.328-12.822 6.329 12.823c1.822 3.689 5.34 6.245 9.41 6.836l14.149 2.057-10.238 9.979c-2.947 2.874-4.29 7.009-3.595 11.063z"/><path d="m160.06 122.439c.462 4.115 4.18 7.073 8.291 6.615 1.27-.139 31.122-3.039 37.956 36.168.714 4.097 4.616 6.811 8.677 6.101 4.081-.711 6.812-4.596 6.101-8.677-9.23-52.949-53.956-48.547-54.408-48.498-4.117.463-7.079 4.175-6.617 8.291z"/><path d="m431.719 80.768-17.865-2.597-7.989-16.187c-4.585-9.288-17.834-9.282-22.416 0l-7.989 16.187-17.864 2.597c-10.249 1.488-14.341 14.092-6.927 21.318l12.927 12.6-3.052 17.793c-1.75 10.206 8.971 17.994 18.135 13.176l15.978-8.4 15.979 8.4c9.151 4.81 19.889-2.954 18.134-13.176l-3.052-17.793 12.927-12.6c7.416-7.228 3.319-19.831-6.926-21.318zm-17.413 24.096c-2.945 2.872-4.288 7.007-3.593 11.062l2.417 14.094-12.655-6.654c-3.643-1.914-7.991-1.915-11.633 0l-12.656 6.654 2.417-14.092c.696-4.056-.647-8.191-3.595-11.064l-10.238-9.979 14.148-2.057c4.071-.591 7.59-3.146 9.412-6.837l6.328-12.822 6.329 12.823c1.822 3.689 5.34 6.245 9.41 6.836l14.149 2.057z"/><path d="m298.315 171.435c3.577 0 6.745-2.568 7.38-6.213 2.869-16.458 10.029-27.508 21.283-32.842 8.486-4.023 16.464-3.343 16.715-3.321 4.112.436 7.787-2.519 8.248-6.62.462-4.116-2.5-7.828-6.616-8.291-.451-.053-45.178-4.451-54.408 48.498-.797 4.572 2.716 8.789 7.398 8.789z"/><path d="m232.113 88.447v11.99c0 13.102 10.658 23.76 23.759 23.76s23.76-10.658 23.76-23.76v-11.989c1.781-4.799 4.573-9.251 8.146-12.924 8.624-8.865 13.084-20.565 12.559-32.945-.975-22.976-19.742-41.663-42.724-42.542-25.208-1.01-46.246 19.142-46.246 44.472 0 11.651 4.476 22.668 12.604 31.021 3.57 3.667 6.361 8.117 8.142 12.917zm32.519 11.99c0 4.83-3.93 8.76-8.76 8.76s-8.759-3.93-8.759-8.76v-5.817h17.519zm-7.593-85.412c15.229.583 27.665 12.966 28.311 28.19.349 8.213-2.608 15.973-8.324 21.85-4.115 4.229-7.506 9.189-9.975 14.556h-22.358c-2.469-5.367-5.859-10.326-9.972-14.553-5.387-5.536-8.354-12.838-8.354-20.56 0-16.522 13.629-30.118 30.672-29.483z"/><path d="m329.839 396.721h-9.144l-23.226-12.619v-9.878c23.419-12.239 39.85-33.956 45.753-58.727 17.156-2.461 30.384-17.256 30.384-35.083 0-9.3-3.551-17.753-9.391-24.073.672-1.124 1.066-2.434 1.066-3.84v-49.573c0-7.694-1.608-15.144-4.779-22.141-1.215-2.682-3.887-4.404-6.831-4.404h-196.983c-3.293 0-6.201 2.148-7.169 5.296-1.316 4.281-2.218 8.712-2.68 13.17-.427 4.12 2.566 7.807 6.687 8.233 4.117.422 7.806-2.566 8.233-6.687.174-1.68.428-3.354.759-5.013h186.005c1.168 3.722 1.758 7.588 1.758 11.545v42.073c-13.383 0-10.425 0-23.658 0-7.246 0-14.134-3.227-18.789-9.076-2.722-3.418-7.712-3.748-10.875-.914-7.186 6.442-16.459 9.99-26.111 9.99h-98.395-10.986v-14.39c0-4.143-3.358-7.5-7.5-7.5s-7.5 3.357-7.5 7.5v21.89c0 1.405.394 2.716 1.066 3.84-5.84 6.32-9.391 14.773-9.391 24.073 0 17.827 13.228 32.622 30.384 35.083 5.91 24.802 22.364 46.505 45.752 58.726v9.879l-23.226 12.619h-8.891c-24.502 0-44.437 19.935-44.437 44.437v63.345c0 4.143 3.358 7.5 7.5 7.5h155.994c4.142 0 7.5-3.357 7.5-7.5s-3.358-7.5-7.5-7.5h-18.208l-8.323-42.371 3.219-12.614c1.765.052 3.425-.523 4.704-1.477l38.667-28.82h8.562c16.231 0 29.437 13.205 29.437 29.437v55.845h-23.057c-4.142 0-7.5 3.357-7.5 7.5s3.358 7.5 7.5 7.5h30.557c4.142 0 7.5-3.357 7.5-7.5v-63.345c0-24.501-19.934-44.436-44.437-44.436zm-122.998 8.493 14.543-7.901 22.884 15.256c-3.396 3.546-3.307 3.453-11.479 11.984l-17.874-13.322zm39.854 26.506c3.938-4.112 1.96-2.048 9.18-9.584 4.105 4.286 1.858 1.94 9.179 9.584l-3.864 15.142h-10.631zm32.265-7.167-11.479-11.985 22.884-15.256 14.543 7.901zm-96.84-117.462c-.607-3.627-3.747-6.263-7.394-6.263-13.589 0-21.584-9.915-21.584-20.414 0-10.965 8.542-19.905 19.473-20.413h98.233c10.923 0 21.496-3.284 30.424-9.359 6.928 5.949 15.729 9.281 25.044 9.353.102.001.203.007.305.007h12.511c10.93.508 19.472 9.448 19.472 20.413 0 11.447-9.506 20.881-21.27 20.421-3.77-.194-7.083 2.524-7.708 6.256-6.121 36.598-37.585 62.355-73.752 62.355-.001 0-.002 0-.003 0-35.846 0-67.585-25.481-73.751-62.356zm73.754 77.356c8.703 0 17.891-1.307 26.595-4.015v4.117l-26.595 17.729c-5.334-3.556-21.296-14.197-26.596-17.729v-4.118c8.625 2.685 17.79 4.016 26.596 4.016zm-103.149 56.711c0-16.231 13.205-29.437 29.437-29.437h8.309l38.667 28.82c1.27.946 2.927 1.527 4.704 1.477l3.193 12.511-8.344 42.473h-75.966zm91.252 55.844 6.903-35.141h9.94l6.903 35.141z"/></g></g></svg>